<?xml version="1.0" encoding="utf-8"?>

<!DOCTYPE svg PUBLIC "-//W3C//DTD SVG 1.1//EN" "http://www.w3.org/Graphics/SVG/1.1/DTD/svg11.dtd">
<svg version="1.1" id="Layer_1" xmlns="http://www.w3.org/2000/svg" xmlns:xlink="http://www.w3.org/1999/xlink" x="0px" y="0px"
	 viewBox="0 0 2560 1600" enable-background="new 0 0 2560 1600" xml:space="preserve">
<pattern  width="450" height="450" patternUnits="userSpaceOnUse" id="New_Pattern_3" viewBox="0 -450 450 450" overflow="visible">
	<g>
		<polygon fill="none" points="0,-450 450,-450 450,0 0,0 		"/>
		<g>
			<g>
				<path d="M377.8306-76.9934c-8.7112-30.8996-31.9106-45.6542-51.6651-46.8412l5.5836,5.5836
					C349.4806-115.0218,369.5718-101.0896,377.8306-76.9934z"/>
				<path d="M237.7857-212.2144c8.0575-4.4563,16.7239-8.7287,26.0433-12.7856h-20.3722c-4.185,2.0648-8.2267,4.1747-12.1307,6.326
					L237.7857-212.2144z"/>
				<path d="M446.4457-3.5543c0.0108-1.7267-0.041-3.3274-0.1504-4.81c-0.4405,1.1384-0.8366,2.2954-1.19,3.4696L446.4457-3.5543z"
					/>
				<path d="M447.5095-2.4905L450,0v-15.863c-0.2592,0.4235-0.5162,0.8483-0.7612,1.2796
					C449.2522-10.886,448.727-6.8529,447.5095-2.4905z"/>
				<path d="M311.0417-192.5608c-4.5301-14.4855-25.5368-0.0433-31.6414,21.961l3.9166,3.9166
					C292.1119-182.3187,314.6774-180.936,311.0417-192.5608z"/>
				<path d="M294.3679-155.632l9.7255,9.7254c5.6945-0.2569,10.8709,0.6245,11.953-3.1374
					C320.0035-162.8018,305.2121-164.8051,294.3679-155.632z"/>
				<path d="M446.4457-3.5543l1.0638,1.0638c1.2175-4.3624,1.7427-8.3955,1.7293-12.0929
					c-0.1006-27.4184-29.9671-36.2499-29.1805-21.9618c0.7977,14.4855,24.1268-0.4124,26.237,28.1809
					C446.4047-6.8816,446.4565-5.281,446.4457-3.5543z"/>
				<path d="M450-47.5626v-15.8998c-8.9977-17.628-29.7209-18.3096-31.1012-6.4221C417.1871-55.1337,441.2205-67.8803,450-47.5626z"
					/>
				<path d="M266.1573-183.8427l4.2098,4.2097C269.6072-181.7201,268.0885-183.422,266.1573-183.8427z"/>
				<path d="M420.8906-106.2643C421.0343-95.6034,436.933-96.1679,450-90.8558v-24.4296
					C436.0724-121.9165,420.7191-118.9542,420.8906-106.2643z"/>
			</g>
			<g>
				<path d="M373.0066-377.8306c-30.8996,8.7112-45.6542,31.9106-46.8412,51.6651l5.5836-5.5836
					C334.9781-349.4806,348.9105-369.5718,373.0066-377.8306z"/>
				<path d="M237.7856-237.7857c-4.4563-8.0575-8.7287-16.7239-12.7856-26.0433v20.3722c2.0648,4.185,4.1747,8.2267,6.326,12.1307
					L237.7856-237.7857z"/>
				<path d="M446.4457-446.4457c-1.7267-0.0108-3.3274,0.041-4.81,0.1504c1.1384,0.4405,2.2953,0.8366,3.4696,1.19
					L446.4457-446.4457z"/>
				<path d="M447.5095-447.5095L450-450h-15.863c0.4235,0.2592,0.8483,0.5162,1.2796,0.7612
					C439.114-449.2522,443.1471-448.727,447.5095-447.5095z"/>
				<path d="M257.4392-311.0417c-14.4855,4.5301-0.0433,25.5368,21.961,31.6414l3.9167-3.9166
					C267.6813-292.1119,269.064-314.6774,257.4392-311.0417z"/>
				<path d="M294.368-294.3679l9.7254-9.7255c-0.2569-5.6945,0.6245-10.8709-3.1374-11.953
					C287.1982-320.0035,285.1949-305.2121,294.368-294.3679z"/>
				<path d="M446.4457-446.4457l1.0638-1.0638c-4.3624-1.2175-8.3954-1.7427-12.0929-1.7293
					c-27.4185,0.1006-36.2499,29.9671-21.9618,29.1805c14.4855-0.7977-0.4124-24.1268,28.1809-26.237
					C443.1183-446.4047,444.719-446.4565,446.4457-446.4457z"/>
				<path d="M402.4374-450h-15.8998c-17.628,8.9977-18.3096,29.7209-6.4221,31.1012
					C394.8663-417.1871,382.1197-441.2205,402.4374-450z"/>
				<path d="M266.1573-266.1573l4.2097-4.2098C268.2799-269.6072,266.578-268.0885,266.1573-266.1573z"/>
				<path d="M343.7357-420.8906c10.6609-0.1437,10.0964-16.0424,15.4085-29.1094h-24.4296
					C328.0835-436.0724,331.0458-420.7191,343.7357-420.8906z"/>
			</g>
			<g>
				<path d="M72.1694-373.0066c8.7112,30.8996,31.9106,45.6542,51.6651,46.8412l-5.5836-5.5836
					C100.5194-334.9781,80.4282-348.9105,72.1694-373.0066z"/>
				<path d="M212.2143-237.7856c-8.0575,4.4563-16.7239,8.7287-26.0433,12.7856h20.3722c4.185-2.0648,8.2267-4.1747,12.1307-6.326
					L212.2143-237.7856z"/>
				<path d="M3.5543-446.4457c-0.0108,1.7267,0.041,3.3274,0.1504,4.81c0.4405-1.1384,0.8366-2.2953,1.19-3.4696L3.5543-446.4457z"
					/>
				<path d="M2.4905-447.5095L0-450v15.863c0.2593-0.4235,0.5162-0.8483,0.7612-1.2796
					C0.7478-439.114,1.273-443.1471,2.4905-447.5095z"/>
				<path d="M138.9583-257.4392c4.5301,14.4855,25.5368,0.0433,31.6414-21.961l-3.9166-3.9167
					C157.8881-267.6813,135.3226-269.064,138.9583-257.4392z"/>
				<path d="M155.6321-294.368l-9.7255-9.7254c-5.6944,0.2569-10.8709-0.6245-11.953,3.1374
					C129.9965-287.1982,144.7879-285.1949,155.6321-294.368z"/>
				<path d="M3.5543-446.4457l-1.0638-1.0638c-1.2175,4.3624-1.7427,8.3954-1.7293,12.0929
					c0.1006,27.4185,29.9671,36.2499,29.1805,21.9618c-0.7977-14.4855-24.1268,0.4124-26.237-28.1809
					C3.5953-443.1183,3.5435-444.719,3.5543-446.4457z"/>
				<path d="M0-402.4374v15.8998c8.9977,17.628,29.7209,18.3096,31.1012,6.4221C32.8129-394.8663,8.7795-382.1197,0-402.4374z"/>
				<path d="M183.8427-266.1573l-4.2098-4.2097C180.3927-268.2799,181.9115-266.578,183.8427-266.1573z"/>
				<path d="M29.1094-343.7357C28.9657-354.3966,13.067-353.8321,0-359.1442v24.4296
					C13.9276-328.0835,29.2809-331.0458,29.1094-343.7357z"/>
			</g>
			<g>
				<path d="M76.9934-72.1694c30.8996-8.7112,45.6542-31.9106,46.8412-51.6651l-5.5836,5.5836
					C115.0218-100.5194,101.0896-80.4282,76.9934-72.1694z"/>
				<path d="M212.2144-212.2143c4.4563,8.0575,8.7287,16.7239,12.7856,26.0433v-20.3722c-2.0648-4.185-4.1747-8.2267-6.326-12.1307
					L212.2144-212.2143z"/>
				<path d="M3.5543-3.5543c1.7267,0.0108,3.3274-0.041,4.81-0.1504c-1.1384-0.4405-2.2954-0.8366-3.4696-1.19L3.5543-3.5543z"/>
				<path d="M2.4905-2.4905L0,0h15.863c-0.4235-0.2593-0.8483-0.5162-1.2796-0.7612C10.886-0.7478,6.8529-1.273,2.4905-2.4905z"/>
				<path d="M192.5608-138.9583c14.4855-4.5301,0.0433-25.5368-21.961-31.6414l-3.9166,3.9166
					C182.3187-157.8881,180.936-135.3226,192.5608-138.9583z"/>
				<path d="M155.632-155.6321l-9.7254,9.7255c0.2569,5.6944-0.6245,10.8709,3.1374,11.953
					C162.8018-129.9965,164.8051-144.7879,155.632-155.6321z"/>
				<path d="M3.5543-3.5543L2.4905-2.4905C6.8529-1.273,10.886-0.7478,14.5834-0.7612
					c27.4184-0.1006,36.2499-29.9671,21.9618-29.1805C22.0597-29.144,36.9577-5.8149,8.3643-3.7047
					C6.8816-3.5953,5.281-3.5435,3.5543-3.5543z"/>
				<path d="M47.5626,0h15.8998c17.628-8.9977,18.3096-29.7209,6.4221-31.1012C55.1337-32.8129,67.8803-8.7795,47.5626,0z"/>
				<path d="M183.8427-183.8427l-4.2097,4.2098C181.7201-180.3927,183.422-181.9115,183.8427-183.8427z"/>
				<path d="M106.2643-29.1094C95.6034-28.9657,96.1679-13.067,90.8558,0h24.4296
					C121.9165-13.9276,118.9542-29.2809,106.2643-29.1094z"/>
			</g>
			<g>
				<path d="M377.8306-373.0066c-8.7112,30.8996-31.9106,45.6542-51.6651,46.8412l5.5836-5.5836
					C349.4806-334.9781,369.5718-348.9105,377.8306-373.0066z"/>
				<path d="M237.7857-237.7856c8.0575,4.4563,16.7239,8.7287,26.0433,12.7856h-20.3722c-4.185-2.0648-8.2267-4.1747-12.1307-6.326
					L237.7857-237.7856z"/>
				<path d="M446.4457-446.4457c0.0108,1.7267-0.041,3.3274-0.1504,4.81c-0.4405-1.1384-0.8366-2.2953-1.19-3.4696
					L446.4457-446.4457z"/>
				<path d="M447.5095-447.5095L450-450v15.863c-0.2592-0.4235-0.5162-0.8483-0.7612-1.2796
					C449.2522-439.114,448.727-443.1471,447.5095-447.5095z"/>
				<path d="M311.0417-257.4392c-4.5301,14.4855-25.5368,0.0433-31.6414-21.961l3.9166-3.9167
					C292.1119-267.6813,314.6774-269.064,311.0417-257.4392z"/>
				<path d="M294.3679-294.368l9.7255-9.7254c5.6945,0.2569,10.8709-0.6245,11.953,3.1374
					C320.0035-287.1982,305.2121-285.1949,294.3679-294.368z"/>
				<path d="M446.4457-446.4457l1.0638-1.0638c1.2175,4.3624,1.7427,8.3954,1.7293,12.0929
					c-0.1006,27.4185-29.9671,36.2499-29.1805,21.9618c0.7977-14.4855,24.1268,0.4124,26.237-28.1809
					C446.4047-443.1183,446.4565-444.719,446.4457-446.4457z"/>
				<path d="M450-402.4374v15.8998c-8.9977,17.628-29.7209,18.3096-31.1012,6.4221
					C417.1871-394.8663,441.2205-382.1197,450-402.4374z"/>
				<path d="M266.1573-266.1573l4.2098-4.2097C269.6072-268.2799,268.0885-266.578,266.1573-266.1573z"/>
				<path d="M420.8906-343.7357c0.1437-10.6609,16.0424-10.0964,29.1094-15.4085v24.4296
					C436.0724-328.0835,420.7191-331.0458,420.8906-343.7357z"/>
			</g>
			<g>
				<path d="M76.9934-377.8306c30.8996,8.7112,45.6542,31.9106,46.8412,51.6651l-5.5836-5.5836
					C115.0218-349.4806,101.0896-369.5718,76.9934-377.8306z"/>
				<path d="M212.2144-237.7857c4.4563-8.0575,8.7287-16.7239,12.7856-26.0433v20.3722c-2.0648,4.185-4.1747,8.2267-6.326,12.1307
					L212.2144-237.7857z"/>
				<path d="M3.5543-446.4457c1.7267-0.0108,3.3274,0.041,4.81,0.1504c-1.1384,0.4405-2.2954,0.8366-3.4696,1.19L3.5543-446.4457z"
					/>
				<path d="M2.4905-447.5095L0-450h15.863c-0.4235,0.2592-0.8483,0.5162-1.2796,0.7612
					C10.886-449.2522,6.8529-448.727,2.4905-447.5095z"/>
				<path d="M192.5608-311.0417c14.4855,4.5301,0.0433,25.5368-21.961,31.6414l-3.9166-3.9166
					C182.3187-292.1119,180.936-314.6774,192.5608-311.0417z"/>
				<path d="M155.632-294.3679l-9.7254-9.7255c0.2569-5.6945-0.6245-10.8709,3.1374-11.953
					C162.8018-320.0035,164.8051-305.2121,155.632-294.3679z"/>
				<path d="M3.5543-446.4457l-1.0638-1.0638c4.3624-1.2175,8.3955-1.7427,12.0929-1.7293
					c27.4184,0.1006,36.2499,29.9671,21.9618,29.1805c-14.4855-0.7977,0.4124-24.1268-28.1809-26.237
					C6.8816-446.4047,5.281-446.4565,3.5543-446.4457z"/>
				<path d="M47.5626-450h15.8998c17.628,8.9977,18.3096,29.7209,6.4221,31.1012C55.1337-417.1871,67.8803-441.2205,47.5626-450z"/>
				<path d="M183.8427-266.1573l-4.2097-4.2098C181.7201-269.6072,183.422-268.0885,183.8427-266.1573z"/>
				<path d="M106.2643-420.8906C95.6034-421.0343,96.1679-436.933,90.8558-450h24.4296
					C121.9165-436.0724,118.9542-420.7191,106.2643-420.8906z"/>
			</g>
			<g>
				<path d="M72.1694-76.9934c8.7112-30.8996,31.9106-45.6542,51.6651-46.8412l-5.5836,5.5836
					C100.5194-115.0218,80.4282-101.0896,72.1694-76.9934z"/>
				<path d="M212.2143-212.2144c-8.0575-4.4563-16.7239-8.7287-26.0433-12.7856h20.3722c4.185,2.0648,8.2267,4.1747,12.1307,6.326
					L212.2143-212.2144z"/>
				<path d="M3.5543-3.5543c-0.0108-1.7267,0.041-3.3274,0.1504-4.81c0.4405,1.1384,0.8366,2.2954,1.19,3.4696L3.5543-3.5543z"/>
				<path d="M2.4905-2.4905L0,0v-15.863c0.2593,0.4235,0.5162,0.8483,0.7612,1.2796C0.7478-10.886,1.273-6.8529,2.4905-2.4905z"/>
				<path d="M138.9583-192.5608c4.5301-14.4855,25.5368-0.0433,31.6414,21.961l-3.9166,3.9166
					C157.8881-182.3187,135.3226-180.936,138.9583-192.5608z"/>
				<path d="M155.6321-155.632l-9.7255,9.7254c-5.6944-0.2569-10.8709,0.6245-11.953-3.1374
					C129.9965-162.8018,144.7879-164.8051,155.6321-155.632z"/>
				<path d="M3.5543-3.5543L2.4905-2.4905C1.273-6.8529,0.7478-10.886,0.7612-14.5834
					c0.1006-27.4184,29.9671-36.2499,29.1805-21.9618C29.144-22.0597,5.8149-36.9577,3.7047-8.3643
					C3.5953-6.8816,3.5435-5.281,3.5543-3.5543z"/>
				<path d="M0-47.5626v-15.8998c8.9977-17.628,29.7209-18.3096,31.1012-6.4221C32.8129-55.1337,8.7795-67.8803,0-47.5626z"/>
				<path d="M183.8427-183.8427l-4.2098,4.2097C180.3927-181.7201,181.9115-183.422,183.8427-183.8427z"/>
				<path d="M29.1094-106.2643C28.9657-95.6034,13.067-96.1679,0-90.8558v-24.4296
					C13.9276-121.9165,29.2809-118.9542,29.1094-106.2643z"/>
			</g>
			<g>
				<path d="M373.0066-72.1694c-30.8996-8.7112-45.6542-31.9106-46.8412-51.6651l5.5836,5.5836
					C334.9781-100.5194,348.9105-80.4282,373.0066-72.1694z"/>
				<path d="M237.7856-212.2143c-4.4563,8.0575-8.7287,16.7239-12.7856,26.0433v-20.3722c2.0648-4.185,4.1747-8.2267,6.326-12.1307
					L237.7856-212.2143z"/>
				<path d="M446.4457-3.5543c-1.7267,0.0108-3.3274-0.041-4.81-0.1504c1.1384-0.4405,2.2953-0.8366,3.4696-1.19L446.4457-3.5543z"
					/>
				<path d="M447.5095-2.4905L450,0h-15.863c0.4235-0.2593,0.8483-0.5162,1.2796-0.7612
					C439.114-0.7478,443.1471-1.273,447.5095-2.4905z"/>
				<path d="M257.4392-138.9583c-14.4855-4.5301-0.0433-25.5368,21.961-31.6414l3.9167,3.9166
					C267.6813-157.8881,269.064-135.3226,257.4392-138.9583z"/>
				<path d="M294.368-155.6321l9.7254,9.7255c-0.2569,5.6944,0.6245,10.8709-3.1374,11.953
					C287.1982-129.9965,285.1949-144.7879,294.368-155.6321z"/>
				<path d="M446.4457-3.5543l1.0638,1.0638c-4.3624,1.2175-8.3954,1.7427-12.0929,1.7293
					c-27.4185-0.1006-36.2499-29.9671-21.9618-29.1805c14.4855,0.7977-0.4124,24.1268,28.1809,26.237
					C443.1183-3.5953,444.719-3.5435,446.4457-3.5543z"/>
				<path d="M402.4374,0h-15.8998c-17.628-8.9977-18.3096-29.7209-6.4221-31.1012C394.8663-32.8129,382.1197-8.7795,402.4374,0z"/>
				<path d="M266.1573-183.8427l4.2097,4.2098C268.2799-180.3927,266.578-181.9115,266.1573-183.8427z"/>
				<path d="M343.7357-29.1094C354.3966-28.9657,353.8321-13.067,359.1442,0h-24.4296
					C328.0835-13.9276,331.0458-29.2809,343.7357-29.1094z"/>
			</g>
		</g>
	</g>
</pattern>
<rect fill="url(#New_Pattern_3)" width="2560" height="1600"/>
</svg>
