<?xml version="1.0" encoding="UTF-8"?>
<svg version="1.1" xmlns="http://www.w3.org/2000/svg" width="1080" height="1080">
<path d="M0 0 C17.19338969 -0.02332856 34.38677447 -0.04097896 51.58017635 -0.05181217 C59.562815 -0.05697522 67.54544383 -0.06401809 75.52807617 -0.07543945 C82.48323799 -0.08538602 89.43839269 -0.09185336 96.39356142 -0.09408849 C100.07851927 -0.09539565 103.76345678 -0.09848179 107.44840813 -0.10573006 C111.55537708 -0.1137434 115.66231037 -0.11399116 119.76928711 -0.11352539 C120.99998932 -0.11712067 122.23069153 -0.12071594 123.49868774 -0.12442017 C124.61073074 -0.1230455 125.72277374 -0.12167084 126.86851501 -0.12025452 C127.84100661 -0.12117631 128.81349821 -0.1220981 129.81545925 -0.12304783 C132 0 132 0 133 1 C133.09745465 2.78797733 133.12371423 4.57985321 133.12304783 6.37048435 C133.12503888 7.54289631 133.12702993 8.71530828 133.12908131 9.92324787 C133.12616847 11.22769366 133.12325563 12.53213945 133.12025452 13.87611389 C133.1206901 15.26291007 133.12156476 16.64970617 133.12284368 18.03650182 C133.12509125 21.86518169 133.12106381 25.69383384 133.11606562 29.52251017 C133.11176503 33.64454884 133.11320727 37.76658582 133.1139679 41.8886261 C133.11449338 49.03627457 133.11134403 56.18391395 133.10573006 63.33156013 C133.09761836 73.66597886 133.09500018 84.00039316 133.09374207 94.33481472 C133.09155102 111.09992129 133.08488953 127.86502302 133.07543945 144.63012695 C133.06626668 160.92016577 133.05918519 177.21020327 133.05493164 193.50024414 C133.05453756 195.00529583 133.05453756 195.00529583 133.05413551 196.5407526 C133.05283051 201.5741299 133.0515668 206.6075072 133.05032361 211.64088452 C133.03994937 253.42726066 133.0215102 295.21362782 133 337 C171.61 337 210.22 337 250 337 C249.98428955 321.79349365 249.98428955 321.79349365 249.96826172 306.27978516 C249.93619055 273.87688407 249.91392745 241.47398293 249.89786934 209.07107011 C249.8953678 204.04152066 249.89277917 199.01197126 249.89013672 193.98242188 C249.88934979 192.48042488 249.88934979 192.48042488 249.88854696 190.94808452 C249.87983428 174.71521349 249.86405958 158.48235656 249.84569441 142.24949391 C249.82701932 125.60440248 249.81588835 108.95931845 249.81182301 92.31421697 C249.80907297 82.03574735 249.80037408 71.7573176 249.78416707 61.47886024 C249.77362967 54.43927659 249.77039198 47.39971367 249.77299725 40.3601227 C249.77428362 36.2931124 249.77225338 32.22617197 249.76158905 28.15917397 C249.75190988 24.44091554 249.75133004 20.72277445 249.75820221 17.00451081 C249.75945739 15.01171882 249.75078381 13.01892836 249.74183738 11.02615607 C249.74581948 9.85523645 249.74980158 8.68431684 249.75390434 7.47791481 C249.7531449 6.46102377 249.75238546 5.44413272 249.75160301 4.3964268 C250 2 250 2 252 0 C254.30479527 -0.24888897 254.30479527 -0.24888897 257.24501038 -0.24723816 C258.35698288 -0.25143265 259.46895538 -0.25562714 260.61462402 -0.25994873 C262.45292786 -0.25151947 262.45292786 -0.25151947 264.32836914 -0.24291992 C265.61452621 -0.24481827 266.90068329 -0.24671661 268.22581482 -0.24867249 C271.75875576 -0.2535283 275.29157079 -0.2458564 278.82449651 -0.23571944 C282.51560024 -0.22695244 286.20669987 -0.22869611 289.89781189 -0.2290802 C296.09603998 -0.22814304 302.29421918 -0.21945155 308.49243164 -0.20581055 C315.6679123 -0.19007755 322.84333942 -0.18481265 330.01883608 -0.1855461 C336.91088995 -0.18615554 343.80292629 -0.18105824 350.6949749 -0.17275429 C353.63316421 -0.16921541 356.57134732 -0.16739018 359.50953865 -0.16686058 C363.60672685 -0.1656735 367.70385104 -0.15597744 371.80102539 -0.14526367 C373.64236557 -0.14594345 373.64236557 -0.14594345 375.52090454 -0.14663696 C376.63005722 -0.14237198 377.7392099 -0.13810699 378.88197327 -0.13371277 C380.33681421 -0.131199 380.33681421 -0.131199 381.82104588 -0.12863445 C384 0 384 0 385 1 C385.08861992 3.8116338 385.11522355 6.59858255 385.09765625 9.41015625 C385.0962413 10.25219101 385.09482635 11.09422577 385.09336853 11.96177673 C385.08775263 14.66205335 385.07519748 17.36224828 385.0625 20.0625 C385.05748705 21.88867068 385.05292379 23.71484266 385.04882812 25.54101562 C385.03777804 30.02737542 385.02050279 34.51367384 385 39 C385.89758026 38.99333817 386.79516052 38.98667633 387.71994019 38.97981262 C396.16635538 38.91977652 404.61269923 38.87406388 413.05927849 38.84456348 C417.4020788 38.82888731 421.74470326 38.80761375 426.08740234 38.77368164 C430.27599956 38.74115732 434.46442731 38.7231617 438.65314102 38.71536827 C440.25359898 38.70981225 441.85404736 38.69896305 443.45443344 38.68280983 C445.69101982 38.66112694 447.92690017 38.65802913 450.16357422 38.65942383 C451.43820526 38.65276199 452.7128363 38.64610016 454.02609253 38.63923645 C455.00748199 38.75828842 455.98887146 38.87734039 457 39 C460.40789563 44.11184345 460.13944288 49.15518293 460.09765625 55.14453125 C460.0962413 55.91431808 460.09482635 56.68410492 460.09336853 57.47721863 C460.08779606 59.92235288 460.07524871 62.36739368 460.0625 64.8125 C460.05748144 66.47591013 460.05291915 68.1393217 460.04882812 69.80273438 C460.03783566 73.86852528 460.0205901 77.93424683 460 82 C460.59611084 81.96447021 461.19222168 81.92894043 461.80639648 81.89233398 C477.61471207 80.99093646 493.19345392 81.11088178 509 82 C510.69196504 85.38393008 510.11986549 89.22477791 510.09765625 92.9453125 C510.0962413 93.8303244 510.09482635 94.7153363 510.09336853 95.62716675 C510.0877614 98.45981191 510.07520771 101.29237864 510.0625 104.125 C510.05748592 106.04296761 510.05292285 107.96093646 510.04882812 109.87890625 C510.03778966 114.58596782 510.02052025 119.2929706 510 124 C511.23153809 123.99476318 512.46307617 123.98952637 513.73193359 123.98413086 C518.29035722 123.96606447 522.84877767 123.95456196 527.40722656 123.94506836 C529.38216687 123.9400319 531.35710343 123.93320249 533.33203125 123.92456055 C536.16667605 123.91246492 539.00127166 123.9067649 541.8359375 123.90234375 C542.72243988 123.89718246 543.60894226 123.89202118 544.52230835 123.88670349 C550.77225659 123.88612829 550.77225659 123.88612829 553 125 C553.99628009 139.13184994 553.81635819 152.84979136 553 167 C567.19 167 581.38 167 596 167 C597.28566729 169.57133459 597.12009778 171.397171 597.11352539 174.27587891 C597.11344986 175.3768692 597.11337433 176.4778595 597.11329651 177.61221313 C597.10813522 178.80494843 597.10297394 179.99768372 597.09765625 181.2265625 C597.0962413 182.44451508 597.09482635 183.66246765 597.09336853 184.91732788 C597.08775639 188.8199099 597.07520179 192.72243523 597.0625 196.625 C597.05748657 199.26562417 597.05292339 201.90624924 597.04882812 204.546875 C597.03778301 211.03126945 597.02103302 217.51563068 597 224 C598.57467041 223.98428955 598.57467041 223.98428955 600.18115234 223.96826172 C604.06865033 223.93211547 607.95613341 223.90911922 611.84375 223.89013672 C613.52769466 223.88006683 615.21162179 223.86641012 616.89550781 223.84912109 C619.31319501 223.82491574 621.73065143 223.81352704 624.1484375 223.8046875 C624.9036972 223.79436493 625.65895691 223.78404236 626.43710327 223.77340698 C628.2929398 223.77300682 630.1481928 223.87777284 632 224 C634 226 634 226 634.24050903 227.83499146 C634.23606781 228.57667572 634.23162659 229.31835999 634.22705078 230.08251953 C634.22680908 230.93499268 634.22656738 231.78746582 634.22631836 232.66577148 C634.21608643 233.56239502 634.20585449 234.45901855 634.1953125 235.3828125 C634.19329834 236.20644287 634.19128418 237.03007324 634.18920898 237.87866211 C634.17873023 240.96083124 634.1508077 244.0429211 634.125 247.125 C634.08375 254.01375 634.0425 260.9025 634 268 C607.27 268 580.54 268 553 268 C553 280.54 553 293.08 553 306 C551.3221021 307.6778979 549.2626252 307.12746928 546.96118164 307.12939453 C545.88659195 307.13254669 544.81200226 307.13569885 543.70484924 307.13894653 C542.53510056 307.1369223 541.36535187 307.13489807 540.16015625 307.1328125 C538.96772812 307.13376923 537.77529999 307.13472595 536.54673767 307.13571167 C534.0188695 307.13639376 531.49099959 307.13453746 528.96313477 307.13037109 C525.08280517 307.12502796 521.20259157 307.13031273 517.32226562 307.13671875 C514.87239558 307.13605788 512.4225256 307.13477654 509.97265625 307.1328125 C508.80493179 307.13483673 507.63720734 307.13686096 506.43409729 307.13894653 C505.35635544 307.13579437 504.27861359 307.13264221 503.16821289 307.12939453 C502.21636612 307.12859894 501.26451935 307.12780334 500.28382874 307.12698364 C498 307 498 307 496 306 C496 280.26 496 254.52 496 228 C474.13032175 228.07914735 474.13032175 228.07914735 452.26074219 228.18017578 C449.52278804 228.18601599 446.78483216 228.19111266 444.046875 228.1953125 C443.33670227 228.20053925 442.62652954 228.20576599 441.89483643 228.21115112 C439.79796082 228.22580902 437.70141141 228.2278114 435.60449219 228.22705078 C434.42312683 228.231492 433.24176147 228.23593323 432.02459717 228.24050903 C429 228 429 228 425 226 C425 208.84 425 191.68 425 174 C419.06 174.33 413.12 174.66 407 175 C399.74 174.67 392.48 174.34 385 174 C385.33 337.68 385.66 501.36 386 670 C386.33 669.67 386.66 669.34 387 669 C389.8116338 668.91138008 392.59858255 668.88477645 395.41015625 668.90234375 C396.25219101 668.9037587 397.09422577 668.90517365 397.96177673 668.90663147 C400.66205335 668.91224737 403.36224828 668.92480252 406.0625 668.9375 C407.88867068 668.94251295 409.71484266 668.94707621 411.54101562 668.95117188 C416.02737542 668.96222196 420.51367384 668.97949721 425 669 C424.99476318 667.70263916 424.98952637 666.40527832 424.98413086 665.06860352 C424.96608531 660.27352585 424.95456963 655.4784512 424.94506836 650.68334961 C424.94002712 648.60456844 424.93319426 646.52579084 424.92456055 644.44702148 C424.91248578 641.46597414 424.90676976 638.48497351 424.90234375 635.50390625 C424.89718246 634.56849503 424.89202118 633.6330838 424.88670349 632.66932678 C424.88662796 631.80850998 424.88655243 630.94769318 424.88647461 630.06079102 C424.884254 629.29912125 424.88203339 628.53745148 424.87974548 627.75270081 C425 626 425 626 426 625 C433.73699993 623.82816357 441.41104642 623.87103732 449.22265625 623.90234375 C450.57742765 623.90421281 451.93219973 623.9056344 453.28697205 623.90663147 C456.82308881 623.91041828 460.35916338 623.92021501 463.89526367 623.93133545 C467.51545644 623.94163283 471.13565613 623.94614679 474.75585938 623.95117188 C481.83725667 623.96184138 488.91862555 623.97887072 496 624 C495.99333817 622.88944244 495.98667633 621.77888489 495.97981262 620.63467407 C495.91909128 610.18686531 495.87407063 599.73909218 495.84456348 589.29114723 C495.82888377 583.91928397 495.80760353 578.54756275 495.77368164 573.17578125 C495.74117029 567.9951576 495.72316437 562.81467086 495.71536827 557.63395309 C495.70980994 555.65391254 495.6989564 553.67387977 495.68280983 551.69389725 C495.66114475 548.92808884 495.65802847 546.16285177 495.65942383 543.39697266 C495.64324509 542.15943489 495.64324509 542.15943489 495.6267395 540.89689636 C495.63923645 538.61929321 495.63923645 538.61929321 496 535 C499.27042533 532.81971645 500.2703639 532.73808181 504.06640625 532.69360352 C505.09757568 532.67761612 506.12874512 532.66162872 507.19116211 532.64515686 C508.30370361 532.63979416 509.41624512 532.63443146 510.5625 532.62890625 C511.70533447 532.61987778 512.84816895 532.6108493 514.02563477 532.60154724 C516.4431699 532.58703287 518.86074443 532.57815507 521.27832031 532.57446289 C524.98569376 532.56254599 528.69141446 532.51335143 532.3984375 532.46289062 C534.74478352 532.45342923 537.09113979 532.44619284 539.4375 532.44140625 C540.5500415 532.42187393 541.66258301 532.40234161 542.80883789 532.38221741 C550.42609563 532.42711364 550.42609563 532.42711364 553.20214844 535.19824219 C554.02264778 538.07953056 554.35867902 540.39321465 554.328125 543.38671875 C554.32039062 544.9190918 554.32039062 544.9190918 554.3125 546.48242188 C554.291875 547.54009766 554.27125 548.59777344 554.25 549.6875 C554.24226562 551.24500977 554.24226562 551.24500977 554.234375 552.83398438 C554.16972882 559.2784002 553.68632015 565.59512064 553 572 C554.89274658 571.98428955 554.89274658 571.98428955 556.82373047 571.96826172 C561.49394914 571.93213101 566.16415539 571.90912484 570.83447266 571.89013672 C572.85793127 571.88006329 574.88137528 571.86640405 576.90478516 571.84912109 C579.80895589 571.82493153 582.71293461 571.81353051 585.6171875 571.8046875 C586.52556366 571.79436493 587.43393982 571.78404236 588.36984253 571.77340698 C589.63092331 571.77318039 589.63092331 571.77318039 590.91748047 571.77294922 C591.65916473 571.768508 592.400849 571.76406677 593.16500854 571.75949097 C595 572 595 572 597 574 C597.24050903 576.17666626 597.24050903 576.17666626 597.22705078 578.90869141 C597.22689972 579.92959869 597.22674866 580.95050598 597.22659302 582.00234985 C597.21627045 583.10759003 597.20594788 584.2128302 597.1953125 585.3515625 C597.19106766 587.04531509 597.19106766 587.04531509 597.18673706 588.77328491 C597.17551462 592.39062971 597.15040622 596.00772966 597.125 599.625 C597.11497287 602.0729131 597.10584656 604.52083007 597.09765625 606.96875 C597.07556857 612.97925064 597.04207074 618.98960783 597 625 C598.20301758 624.83773926 599.40603516 624.67547852 600.64550781 624.50830078 C604.00362151 624.08966739 607.2840222 623.87145125 610.671875 623.8671875 C612.16267578 623.86525391 612.16267578 623.86525391 613.68359375 623.86328125 C614.69550781 623.86714844 615.70742188 623.87101563 616.75 623.875 C618.29107422 623.86919922 618.29107422 623.86919922 619.86328125 623.86328125 C620.85199219 623.86457031 621.84070313 623.86585938 622.859375 623.8671875 C624.19693848 623.86887939 624.19693848 623.86887939 625.56152344 623.87060547 C629.80047695 624.09553993 629.80047695 624.09553993 632 625 C633.782143 627.87349952 634.24677486 630.04827304 634.22705078 633.40136719 C634.22689972 634.2619574 634.22674866 635.12254761 634.22659302 636.00921631 C634.21627045 636.92914368 634.20594788 637.84907104 634.1953125 638.796875 C634.19106766 640.22003021 634.19106766 640.22003021 634.18673706 641.67193604 C634.17555448 644.69808639 634.1504533 647.7239393 634.125 650.75 C634.11496772 652.80338114 634.1058423 654.85676692 634.09765625 656.91015625 C634.07562141 661.94021854 634.04110462 666.97005886 634 672 C629.32714119 674.4787749 626.32048474 675.36466562 621 675.25 C619.69675781 675.22292969 618.39351562 675.19585938 617.05078125 675.16796875 C600.04588235 674.52294118 600.04588235 674.52294118 597 673 C597.00222061 673.63449066 597.00444122 674.26898132 597.00672913 674.92269897 C597.02880045 681.50835611 597.04391437 688.09400278 597.05493164 694.6796875 C597.05996989 697.13965278 597.0668006 699.59961505 597.07543945 702.05957031 C597.08752723 705.58920025 597.09323329 709.11879069 597.09765625 712.6484375 C597.10539818 714.30629776 597.10539818 714.30629776 597.11329651 715.99765015 C597.11337204 717.01855743 597.11344757 718.03946472 597.11352539 719.09130859 C597.115746 719.99287689 597.11796661 720.89444519 597.12025452 721.82333374 C597 724 597 724 596 726 C581.81 726 567.62 726 553 726 C553 740.19 553 754.38 553 769 C550.49450555 770.25274723 548.80264368 770.12029624 545.99951172 770.11352539 C544.43811966 770.11341209 544.43811966 770.11341209 542.84518433 770.11329651 C541.71807037 770.10813522 540.59095642 770.10297394 539.4296875 770.09765625 C538.27832306 770.0962413 537.12695862 770.09482635 535.94070435 770.09336853 C532.25211014 770.08775716 528.56357595 770.0752027 524.875 770.0625 C522.37890712 770.05748647 519.8828133 770.05292331 517.38671875 770.04882812 C511.25779191 770.03778403 505.12890024 770.0210348 499 770 C499.03296677 770.783181 499.06593353 771.566362 499.09989929 772.37327576 C500.09881674 796.2055724 500.09881674 796.2055724 500.1875 805.4375 C500.20167969 806.65308594 500.21585938 807.86867188 500.23046875 809.12109375 C500 812 500 812 498 815 C495.02609253 815.36076355 495.02609253 815.36076355 491.16357422 815.34057617 C490.10975052 815.34123329 490.10975052 815.34123329 489.03463745 815.34190369 C486.70770674 815.33981021 484.38149264 815.31645395 482.0546875 815.29296875 C480.44329217 815.28737476 478.83189175 815.28310373 477.2204895 815.28010559 C472.9755855 815.26864126 468.73098858 815.23916068 464.48620605 815.20599365 C460.15621088 815.17532682 455.82616618 815.16160752 451.49609375 815.14648438 C442.99725479 815.11429227 434.49866557 815.06307704 426 815 C426.01571045 816.80186768 426.01571045 816.80186768 426.03173828 818.64013672 C426.06787287 823.08672112 426.09087657 827.53329248 426.10986328 831.97998047 C426.11993582 833.90643494 426.13359443 835.83287408 426.15087891 837.75927734 C426.17507241 840.52445252 426.18647036 843.289426 426.1953125 846.0546875 C426.20563507 846.9193161 426.21595764 847.7839447 426.22659302 848.67477417 C426.22699106 850.78453521 426.12265243 852.89380718 426 855 C423.15679414 857.84320586 421.2731647 857.25417885 417.28785706 857.26069641 C416.58997745 857.26452196 415.89209784 857.26834751 415.17307037 857.27228898 C412.82306838 857.28264838 410.47330938 857.27862135 408.12329102 857.2746582 C406.44315361 857.27900307 404.76301819 857.28418545 403.08288574 857.29014587 C398.5106123 857.30357159 393.93842134 857.30411058 389.36613202 857.30158257 C385.55381409 857.30051526 381.74151301 857.30539009 377.92919868 857.310188 C368.93773104 857.32129558 359.94630517 857.32171359 350.95483398 857.31567383 C341.66852019 857.30963207 332.38235783 857.32194731 323.09606987 857.3432439 C315.13255677 857.36083767 307.16909198 857.36686477 299.20556015 857.36360615 C294.44518574 857.36178956 289.68491933 857.36446675 284.92456245 857.37832069 C280.44875584 857.3908583 275.97318593 857.38899372 271.49738312 857.37590981 C269.85221974 857.37353555 268.20703991 857.37630893 266.56189537 857.38453293 C264.32069438 857.39493091 262.0802979 857.38695675 259.83912659 857.3742218 C257.95565191 857.37447341 257.95565191 857.37447341 256.03412724 857.37473011 C253 857 253 857 251.33343852 855.88032424 C249.36525456 853.10492517 249.62760252 850.92097938 249.63085651 847.54008198 C249.62739498 846.87815471 249.62393345 846.21622744 249.62036702 845.53424177 C249.61238121 843.3003799 249.62592154 841.0671575 249.63923645 838.83332825 C249.63792907 837.22206539 249.6353039 835.61080315 249.63146895 833.99954432 C249.62473872 829.5596275 249.63679137 825.11992645 249.65180314 820.68003714 C249.6647228 815.89681402 249.66037693 811.1136037 249.65809631 806.33036804 C249.656521 798.03901586 249.66595717 789.74773433 249.68280983 781.45639992 C249.7071603 769.46843879 249.71500105 757.48051194 249.7187738 745.49252876 C249.7253445 726.04423481 249.74532243 706.59597855 249.77368164 687.14770508 C249.80120622 668.25219919 249.82244763 649.35670352 249.83520508 630.46118164 C249.83599325 629.29704154 249.83678142 628.13290143 249.83759347 626.93348435 C249.8415085 621.09350853 249.84529965 615.25353264 249.84902918 609.41355669 C249.88014434 560.94234508 249.93299696 512.47117437 250 464 C249.01 464.33 248.02 464.66 247 465 C245.51378241 465.09090159 244.02381529 465.12627709 242.53482056 465.12698364 C241.62077957 465.12980347 240.70673859 465.13262329 239.76499939 465.13552856 C238.76440994 465.13350433 237.7638205 465.1314801 236.73291016 465.12939453 C235.14959145 465.13202301 235.14959145 465.13202301 233.5342865 465.13470459 C230.0358619 465.13911512 226.53748764 465.13618747 223.0390625 465.1328125 C220.6115213 465.13348587 218.18398017 465.13445617 215.75643921 465.13571167 C210.6637915 465.13718764 205.5711613 465.13503766 200.47851562 465.13037109 C193.94923822 465.12467994 187.42000198 465.12794957 180.89072609 465.13394356 C175.87561737 465.13755703 170.86051841 465.13640685 165.84540939 465.13381577 C163.43804291 465.13314836 161.03067554 465.13396842 158.62331009 465.13629532 C155.25747584 465.13883402 151.89170819 465.13496368 148.52587891 465.12939453 C147.03106743 465.13243088 147.03106743 465.13243088 145.50605774 465.13552856 C144.12653679 465.13129883 144.12653679 465.13129883 142.71914673 465.12698364 C141.92384867 465.12660662 141.12855061 465.12622959 140.3091526 465.12584114 C137.79694346 464.98893409 135.45984481 464.51389688 133 464 C133.00075944 464.8265847 133.00151888 465.65316939 133.00230134 466.50480211 C133.04701458 515.44690903 133.08135138 564.38901379 133.10213066 613.33113702 C133.1046322 619.20187784 133.10722084 625.07261862 133.10986328 630.94335938 C133.11065021 632.69656801 133.11065021 632.69656801 133.11145304 634.485195 C133.12016615 653.43400606 133.13594108 672.38280505 133.15430559 691.33160894 C133.17297949 710.76105105 133.18411139 730.19048682 133.18817699 749.61993754 C133.19092727 761.61813472 133.1996275 773.61629777 133.21583293 785.61448444 C133.22636887 793.83145533 133.22960836 802.04840845 133.22700275 810.26538561 C133.22571615 815.01288152 133.22774921 819.76031758 133.23841095 824.50780296 C133.24808691 828.84779813 133.24867206 833.18769276 133.24179779 837.52769239 C133.24094719 839.10376263 133.24353202 840.67983895 133.24976636 842.25589709 C133.25770934 844.38656117 133.25351781 846.51685492 133.24609566 848.64751244 C133.2468551 849.83451819 133.24761454 851.02152394 133.24839699 852.24449956 C133 855 133 855 131 857 C128.72364616 857.24609566 128.72364616 857.24609566 125.82418823 857.24050903 C124.72759888 857.24325836 123.63100952 857.24600769 122.50119019 857.24884033 C121.29278473 857.24164978 120.08437927 857.23445923 118.83935547 857.22705078 C116.93697113 857.22748886 116.93697113 857.22748886 114.99615479 857.22793579 C111.51285692 857.22851097 108.02969606 857.21673007 104.54643011 857.20278788 C100.90824924 857.19030796 97.27006543 857.18911219 93.63186646 857.18673706 C86.73995545 857.18051421 79.84810768 857.16409256 72.95622456 857.14403808 C65.11111264 857.12170406 57.26599774 857.11069195 49.42086196 857.10064721 C33.28053758 857.079727 17.14027685 857.04453545 1 857 C1 856.34 1 855.68 1 855 C0.34 855 -0.32 855 -1 855 C-1 841.8 -1 828.6 -1 815 C-6.96835937 815.03480469 -12.93671875 815.06960938 -19.0859375 815.10546875 C-22.85938474 815.12079123 -26.63279381 815.13523263 -30.40625 815.14648438 C-36.40014579 815.16444149 -42.39390455 815.1857201 -48.38769531 815.22631836 C-53.21819183 815.25883368 -58.04854147 815.27683645 -62.87913895 815.28463173 C-64.72520893 815.29018935 -66.57127057 815.30104156 -68.41727829 815.31719017 C-70.99630062 815.33886068 -73.57471037 815.34197133 -76.15380859 815.34057617 C-77.30718971 815.35675491 -77.30718971 815.35675491 -78.48387146 815.3732605 C-80.60848999 815.36076355 -80.60848999 815.36076355 -84 815 C-86.06037303 811.90944045 -86.24799242 811.29073838 -86.22705078 807.80395508 C-86.22682419 806.54298759 -86.22682419 806.54298759 -86.22659302 805.25654602 C-86.21627045 804.35333115 -86.20594788 803.45011627 -86.1953125 802.51953125 C-86.1924826 801.59154221 -86.18965271 800.66355316 -86.18673706 799.70744324 C-86.17553836 796.74233121 -86.15043435 793.77752079 -86.125 790.8125 C-86.1149698 788.80273874 -86.10584402 786.79297274 -86.09765625 784.78320312 C-86.07560004 779.85535247 -86.04107229 774.92772738 -86 770 C-86.63671127 770.00222061 -87.27342255 770.00444122 -87.9294281 770.00672913 C-94.53115276 770.0287804 -101.13286704 770.04390593 -107.73461914 770.05493164 C-110.20142033 770.05997356 -112.66821852 770.06680691 -115.13500977 770.07543945 C-118.67204529 770.08751125 -122.20904145 770.09322956 -125.74609375 770.09765625 C-126.85649521 770.10281754 -127.96689667 770.10797882 -129.11094666 770.11329651 C-130.64242088 770.11340981 -130.64242088 770.11340981 -132.20483398 770.11352539 C-133.56051735 770.11685631 -133.56051735 770.11685631 -134.94358826 770.12025452 C-137 770 -137 770 -138 769 C-138.09268999 767.64905018 -138.11747326 766.29332909 -138.11352539 764.93920898 C-138.11344986 764.07839218 -138.11337433 763.21757538 -138.11329651 762.33067322 C-138.10813522 761.39526199 -138.10297394 760.45985077 -138.09765625 759.49609375 C-138.09553383 758.06657127 -138.09553383 758.06657127 -138.09336853 756.60816956 C-138.08775152 753.55124835 -138.07519616 750.49439923 -138.0625 747.4375 C-138.05748719 745.37044376 -138.05292391 743.30338638 -138.04882812 741.23632812 C-138.03777656 736.15752412 -138.02050055 731.0787743 -138 726 C-138.73471527 726.00444122 -139.46943054 726.00888245 -140.22640991 726.01345825 C-147.14235368 726.05349276 -154.05828017 726.08396288 -160.97430992 726.10362434 C-164.53012399 726.11407224 -168.0858425 726.12824959 -171.64160156 726.15087891 C-175.727223 726.17671832 -179.81274369 726.18646444 -183.8984375 726.1953125 C-185.17866791 726.20563507 -186.45889832 726.21595764 -187.77792358 726.22659302 C-189.54953354 726.22681961 -189.54953354 726.22681961 -191.35693359 726.22705078 C-192.40062103 726.231492 -193.44430847 726.23593323 -194.5196228 726.24050903 C-197 726 -197 726 -199 724 C-199.24050903 721.86129761 -199.24050903 721.86129761 -199.22705078 719.18310547 C-199.22689972 718.18221893 -199.22674866 717.1813324 -199.22659302 716.15011597 C-199.21627045 715.06674957 -199.20594788 713.98338318 -199.1953125 712.8671875 C-199.1924826 711.76021515 -199.18965271 710.6532428 -199.18673706 709.51272583 C-199.17551519 705.96670863 -199.15040691 702.42094125 -199.125 698.875 C-199.1149728 696.47526406 -199.1058465 694.07552417 -199.09765625 691.67578125 C-199.07556932 685.78376849 -199.04207207 679.89190209 -199 674 C-199.71470963 674.0702388 -200.42941925 674.1404776 -201.16578674 674.21284485 C-208.77921465 674.93747836 -216.29028014 675.18331433 -223.9375 675.1875 C-225.14212891 675.19974609 -226.34675781 675.21199219 -227.58789062 675.22460938 C-228.74353516 675.22654297 -229.89917969 675.22847656 -231.08984375 675.23046875 C-232.13003662 675.23457764 -233.17022949 675.23868652 -234.24194336 675.24291992 C-237.0769258 674.99322465 -238.70393572 674.67561374 -241 673 C-241.93503689 670.18635182 -242.11530986 667.63434789 -242.08229065 664.68463135 C-242.07525116 663.82930313 -242.06821167 662.97397491 -242.06095886 662.09272766 C-242.04801285 661.16268417 -242.03506683 660.23264069 -242.02172852 659.27441406 C-242.01212097 658.28871933 -242.00251343 657.3030246 -241.99261475 656.28746033 C-241.95963961 653.03010889 -241.91930143 649.77289218 -241.87890625 646.515625 C-241.85460369 644.2569018 -241.8307602 641.99817362 -241.80735779 639.73944092 C-241.74453041 633.79476241 -241.67545983 627.85017213 -241.60510254 621.90557861 C-241.53440702 615.83943702 -241.46959733 609.77323289 -241.40429688 603.70703125 C-241.27530185 591.80461876 -241.13971326 579.90229116 -241 568 C-241.84071045 568.00523682 -242.6814209 568.01047363 -243.54760742 568.01586914 C-246.73282609 568.03313616 -249.91802054 568.04555774 -253.10327148 568.05493164 C-254.46949052 568.05989273 -255.83570444 568.06666372 -257.2019043 568.07543945 C-266.1400459 568.13132338 -275.12147396 568.16944663 -284 567 C-285.86905674 565.13094326 -285.12280712 562.44284298 -285.12908131 559.95579475 C-285.12616847 559.07935328 -285.12325563 558.2029118 -285.12025452 557.2999115 C-285.12110894 556.37617424 -285.12196337 555.45243698 -285.12284368 554.50070769 C-285.12450132 551.38057951 -285.1189725 548.26050415 -285.11352539 545.14038086 C-285.11324355 542.9136607 -285.11340118 540.68694044 -285.1139679 538.46022034 C-285.11425601 532.39434923 -285.10835709 526.32849771 -285.10139394 520.26263118 C-285.09516266 513.93115636 -285.09455678 507.59968115 -285.09336853 501.26820374 C-285.09060883 490.6344464 -285.08435331 480.00069685 -285.07543945 469.36694336 C-285.06626604 458.41219112 -285.05918486 447.45744085 -285.05493164 436.50268555 C-285.05466892 435.82788727 -285.05440619 435.15308899 -285.05413551 434.45784228 C-285.05283051 431.07271283 -285.05156679 427.68758336 -285.05032361 424.30245388 C-285.03995014 396.20163089 -285.02225696 368.10081589 -285 340 C-284.01 339.67 -283.02 339.34 -282 339 C-282 338.34 -282 337.68 -282 337 C-268.47 337 -254.94 337 -241 337 C-241 299.71 -241 262.42 -241 224 C-227.14 224 -213.28 224 -199 224 C-199 191.66 -199 159.32 -199 126 C-191.125 123.75 -191.125 123.75 -186.24829102 123.77294922 C-184.62740318 123.77317581 -184.62740318 123.77317581 -182.97377014 123.77340698 C-181.25618752 123.78889084 -181.25618752 123.78889084 -179.50390625 123.8046875 C-178.31522446 123.8075174 -177.12654266 123.81034729 -175.90184021 123.81326294 C-172.12195582 123.82441794 -168.34231224 123.84951434 -164.5625 123.875 C-161.99284197 123.88503583 -159.42318022 123.89416063 -156.85351562 123.90234375 C-150.56892887 123.92434199 -144.28448165 123.95777311 -138 124 C-138.00523682 122.7632251 -138.01047363 121.5264502 -138.01586914 120.25219727 C-138.03391561 115.68075275 -138.04543071 111.10931141 -138.05493164 106.5378418 C-138.05997267 104.55606559 -138.06680538 102.57429311 -138.07543945 100.5925293 C-138.08751515 97.75047891 -138.09323045 94.90847753 -138.09765625 92.06640625 C-138.10281754 91.17474258 -138.10797882 90.28307892 -138.11329651 89.36439514 C-138.11349177 87.24259399 -138.0621003 85.1208922 -138 83 C-136.06450704 81.06450704 -132.45456138 81.72238735 -129.80859375 81.6484375 C-128.70234398 81.61370834 -128.70234398 81.61370834 -127.57374573 81.57827759 C-125.99918855 81.53049067 -124.42455162 81.48527529 -122.84985352 81.44238281 C-120.49913953 81.37672174 -118.14910574 81.29834454 -115.79882812 81.21875 C-105.80240458 80.91370319 -95.96737668 81.18936668 -86 82 C-86.01047363 80.8039917 -86.02094727 79.6079834 -86.03173828 78.37573242 C-86.06791405 73.94216907 -86.09089166 69.50861879 -86.10986328 65.07495117 C-86.11992639 63.15533251 -86.13357816 61.23572919 -86.15087891 59.31616211 C-86.17511364 56.55839248 -86.18647992 53.80082536 -86.1953125 51.04296875 C-86.20563507 50.18350143 -86.21595764 49.32403412 -86.22659302 48.43852234 C-86.22674408 47.63791885 -86.22689514 46.83731537 -86.22705078 46.01245117 C-86.231492 45.3085173 -86.23593323 44.60458344 -86.24050903 43.87931824 C-86 42 -86 42 -84 39 C-81.30795852 38.7136407 -78.84680444 38.62164856 -76.15380859 38.65942383 C-75.34397018 38.65898575 -74.53413177 38.65854767 -73.69975281 38.65809631 C-71.01573806 38.66019086 -68.33234348 38.68355283 -65.6484375 38.70703125 C-63.79041892 38.71262485 -61.93239592 38.71689606 -60.07437134 38.71989441 C-55.17846511 38.73136181 -50.28282488 38.7608452 -45.38702393 38.79400635 C-40.39346923 38.82466648 -35.39987165 38.83839105 -30.40625 38.85351562 C-20.60404964 38.88571315 -10.80204692 38.93693229 -1 39 C-1.00785522 37.33445068 -1.00785522 37.33445068 -1.01586914 35.63525391 C-1.03393985 31.52409671 -1.04543962 27.41294304 -1.05493164 23.30175781 C-1.05996711 21.52082733 -1.06679581 19.739901 -1.07543945 17.95898438 C-1.08753942 15.40233335 -1.09323609 12.84573688 -1.09765625 10.2890625 C-1.10281754 9.49005524 -1.10797882 8.69104797 -1.11329651 7.86782837 C-1.11387171 2.22774341 -1.11387171 2.22774341 0 0 Z M-82 226 C-82.33 252.4 -82.66 278.8 -83 306 C-99.5 306.33 -116 306.66 -133 307 C-133 394.78 -133 482.56 -133 573 C-116.5 573 -100 573 -83 573 C-82.67 589.83 -82.34 606.66 -82 624 C-71.88791275 623.96043063 -71.88791275 623.96043063 -61.77587891 623.90991211 C-59.89521729 623.90616577 -59.89521729 623.90616577 -57.9765625 623.90234375 C-56.68830566 623.89710693 -55.40004883 623.89187012 -54.07275391 623.88647461 C-51 624 -51 624 -49 625 C-46.69 625 -44.38 625 -42 625 C-41.67 639.52 -41.34 654.04 -41 669 C-21.2 669.495 -21.2 669.495 -1 670 C-1 524.14 -1 378.28 -1 228 C-4.64449231 226.17775384 -5.56593237 225.74132169 -9.3125 225.8125 C-10.64087891 225.83763672 -10.64087891 225.83763672 -11.99609375 225.86328125 C-15.29539201 226.01344437 -18.58157142 226.25272408 -21.875 226.5 C-27.62338448 226.91182456 -33.30105987 227.04698422 -39.0625 227 C-48.13404639 226.92720926 -57.18550467 227.1813895 -66.25 227.5 C-67.27518234 227.53601318 -67.27518234 227.53601318 -68.32107544 227.57275391 C-72.21422312 227.71062462 -76.10717428 227.85333643 -80 228 C-80 227.34 -80 226.68 -80 226 C-80.66 226 -81.32 226 -82 226 Z " fill="#4AEDB9" transform="translate(358,108)"/>
<path d="M0 0 C17.19338969 -0.02332856 34.38677447 -0.04097896 51.58017635 -0.05181217 C59.562815 -0.05697522 67.54544383 -0.06401809 75.52807617 -0.07543945 C82.48323799 -0.08538602 89.43839269 -0.09185336 96.39356142 -0.09408849 C100.07851927 -0.09539565 103.76345678 -0.09848179 107.44840813 -0.10573006 C111.55537708 -0.1137434 115.66231037 -0.11399116 119.76928711 -0.11352539 C120.99998932 -0.11712067 122.23069153 -0.12071594 123.49868774 -0.12442017 C124.61073074 -0.1230455 125.72277374 -0.12167084 126.86851501 -0.12025452 C127.84100661 -0.12117631 128.81349821 -0.1220981 129.81545925 -0.12304783 C132 0 132 0 133 1 C133.09745465 2.78797733 133.12371423 4.57985321 133.12304783 6.37048435 C133.12503888 7.54289631 133.12702993 8.71530828 133.12908131 9.92324787 C133.12616847 11.22769366 133.12325563 12.53213945 133.12025452 13.87611389 C133.1206901 15.26291007 133.12156476 16.64970617 133.12284368 18.03650182 C133.12509125 21.86518169 133.12106381 25.69383384 133.11606562 29.52251017 C133.11176503 33.64454884 133.11320727 37.76658582 133.1139679 41.8886261 C133.11449338 49.03627457 133.11134403 56.18391395 133.10573006 63.33156013 C133.09761836 73.66597886 133.09500018 84.00039316 133.09374207 94.33481472 C133.09155102 111.09992129 133.08488953 127.86502302 133.07543945 144.63012695 C133.06626668 160.92016577 133.05918519 177.21020327 133.05493164 193.50024414 C133.05466892 194.50361193 133.05440619 195.50697972 133.05413551 196.5407526 C133.05283051 201.5741299 133.0515668 206.6075072 133.05032361 211.64088452 C133.03994937 253.42726066 133.0215102 295.21362782 133 337 C171.61 337 210.22 337 250 337 C250.33 245.59 250.66 154.18 251 60 C251.33 60 251.66 60 252 60 C252 152.07 252 244.14 252 339 C212.07 339 172.14 339 131 339 C131 227.46 131 115.92 131 1 C88.1 1 45.2 1 1 1 C1 14.2 1 27.4 1 41 C-27.05 41 -55.1 41 -84 41 C-84 55.19 -84 69.38 -84 84 C-90.27 84 -96.54 84 -103 84 C-102.505 83.01 -102.505 83.01 -102 82 C-96.72 82 -91.44 82 -86 82 C-86.01047363 80.8039917 -86.02094727 79.6079834 -86.03173828 78.37573242 C-86.06791405 73.94216907 -86.09089166 69.50861879 -86.10986328 65.07495117 C-86.11992639 63.15533251 -86.13357816 61.23572919 -86.15087891 59.31616211 C-86.17511364 56.55839248 -86.18647992 53.80082536 -86.1953125 51.04296875 C-86.20563507 50.18350143 -86.21595764 49.32403412 -86.22659302 48.43852234 C-86.22674408 47.63791885 -86.22689514 46.83731537 -86.22705078 46.01245117 C-86.231492 45.3085173 -86.23593323 44.60458344 -86.24050903 43.87931824 C-86 42 -86 42 -84 39 C-81.30795852 38.7136407 -78.84680444 38.62164856 -76.15380859 38.65942383 C-75.34397018 38.65898575 -74.53413177 38.65854767 -73.69975281 38.65809631 C-71.01573806 38.66019086 -68.33234348 38.68355283 -65.6484375 38.70703125 C-63.79041892 38.71262485 -61.93239592 38.71689606 -60.07437134 38.71989441 C-55.17846511 38.73136181 -50.28282488 38.7608452 -45.38702393 38.79400635 C-40.39346923 38.82466648 -35.39987165 38.83839105 -30.40625 38.85351562 C-20.60404964 38.88571315 -10.80204692 38.93693229 -1 39 C-1.00523682 37.88963379 -1.01047363 36.77926758 -1.01586914 35.63525391 C-1.03393985 31.52409671 -1.04543962 27.41294304 -1.05493164 23.30175781 C-1.05996711 21.52082733 -1.06679581 19.739901 -1.07543945 17.95898438 C-1.08753942 15.40233335 -1.09323609 12.84573688 -1.09765625 10.2890625 C-1.10281754 9.49005524 -1.10797882 8.69104797 -1.11329651 7.86782837 C-1.11387171 2.22774341 -1.11387171 2.22774341 0 0 Z " fill="#7CF1B5" transform="translate(358,108)"/>
<path d="M0 0 C1.98 0 3.96 0 6 0 C6 146.85 6 293.7 6 445 C-8.52 445 -23.04 445 -38 445 C-38 430.48 -38 415.96 -38 401 C-37.34 401.33 -36.68 401.66 -36 402 C-36 415.53 -36 429.06 -36 443 C-23.13 443 -10.26 443 3 443 C3.33 297.47 3.66 151.94 4 2 C2.68 1.67 1.36 1.34 0 1 C0 0.67 0 0.34 0 0 Z " fill="#CAF9DB" transform="translate(353,334)"/>
<path d="M0 0 C0.33 0 0.66 0 1 0 C1 92.07 1 184.14 1 279 C-38.27 279 -77.54 279 -118 279 C-118 278.34 -118 277.68 -118 277 C-79.39 277 -40.78 277 -1 277 C-0.67 185.59 -0.34 94.18 0 0 Z " fill="#AFF0B1" transform="translate(609,168)"/>
<path d="M0 0 C0.97027099 0.00054477 1.94054197 0.00108953 2.94021511 0.00165081 C4.05218761 -0.00254368 5.16416012 -0.00673817 6.30982876 -0.01105976 C8.14813259 -0.0026305 8.14813259 -0.0026305 10.02357388 0.00596905 C11.30973095 0.0040707 12.59588802 0.00217236 13.92101955 0.00021648 C17.45396049 -0.00463933 20.98677553 0.00303257 24.51970124 0.01316953 C28.21080497 0.02193653 31.9019046 0.02019286 35.59301662 0.01980877 C41.79124472 0.02074593 47.98942391 0.02943741 54.18763638 0.04307842 C61.36311704 0.05881141 68.53854415 0.06407632 75.71404082 0.06334287 C82.60609468 0.06273343 89.49813103 0.06783073 96.39017963 0.07613468 C99.32836894 0.07967356 102.26655205 0.08149879 105.20474339 0.08202839 C109.30193159 0.08321547 113.39905578 0.09291153 117.49623013 0.1036253 C119.3375703 0.10294552 119.3375703 0.10294552 121.21610928 0.10225201 C122.32526196 0.10651699 123.43441463 0.11078197 124.577178 0.1151762 C126.03201894 0.11768997 126.03201894 0.11768997 127.51625061 0.12025452 C129.69520473 0.24888897 129.69520473 0.24888897 130.69520473 1.24888897 C130.78381734 4.06029048 130.81050058 6.84768321 130.79286098 9.65904522 C130.7918539 10.40504986 130.79084682 11.1510545 130.78980923 11.91966534 C130.78456162 14.7169221 130.77060046 17.51415701 130.75770473 20.31138897 C130.73707973 26.56076397 130.71645473 32.81013897 130.69520473 39.24888897 C154.45520473 39.24888897 178.21520473 39.24888897 202.69520473 39.24888897 C202.69520473 39.57888897 202.69520473 39.90888897 202.69520473 40.24888897 C178.27520473 40.57888897 153.85520473 40.90888897 128.69520473 41.24888897 C128.69520473 28.37888897 128.69520473 15.50888897 128.69520473 2.24888897 C85.79520473 2.24888897 42.89520473 2.24888897 -1.30479527 2.24888897 C-1.63479527 19.40888897 -1.96479527 36.56888897 -2.30479527 54.24888897 C-4.81423831 51.73944592 -4.55729856 50.9312481 -4.56358433 47.46373272 C-4.56988865 46.46930157 -4.57619297 45.47487041 -4.58268833 44.45030499 C-4.57863987 43.3732127 -4.57459141 42.29612041 -4.57042027 41.18638897 C-4.57233372 40.08415997 -4.57424717 38.98193096 -4.57621861 37.84630108 C-4.57758139 35.51272129 -4.57387849 33.17913394 -4.56553745 30.84556866 C-4.55483947 27.2636905 -4.56542985 23.68231394 -4.57823277 20.10045147 C-4.57691119 17.83742952 -4.57434883 15.57440789 -4.57042027 13.31138897 C-4.57446873 12.23429668 -4.57851719 11.1572044 -4.58268833 10.04747295 C-4.57638401 9.0530418 -4.57007969 8.05861065 -4.56358433 7.03404522 C-4.56199314 6.15627422 -4.56040195 5.27850323 -4.55876255 4.37413311 C-4.18205246 1.22175499 -3.12065769 0.33699187 0 0 Z " fill="#90F3BB" transform="translate(612.3047952651978,107.75111103057861)"/>
<path d="M0 0 C0.33 0 0.66 0 1 0 C1.33 12.54 1.66 25.08 2 38 C2.33 38 2.66 38 3 38 C3 107.63 3 177.26 3 249 C2.67 249 2.34 249 2 249 C1.67 250.98 1.34 252.96 1 255 C0.67 255 0.34 255 0 255 C0 170.85 0 86.7 0 0 Z " fill="#31F68D" transform="translate(608,600)"/>
<path d="M0 0 C16.83 0 33.66 0 51 0 C51.33 14.52 51.66 29.04 52 44 C79.72 44.33 107.44 44.66 136 45 C136 58.86 136 72.72 136 87 C135.34 87 134.68 87 134 87 C134 73.8 134 60.6 134 47 C128.03164063 47.03480469 122.06328125 47.06960938 115.9140625 47.10546875 C112.14061526 47.12079123 108.36720619 47.13523263 104.59375 47.14648438 C98.59985421 47.16444149 92.60609545 47.1857201 86.61230469 47.22631836 C81.78180817 47.25883368 76.95145853 47.27683645 72.12086105 47.28463173 C70.27479107 47.29018935 68.42872943 47.30104156 66.58272171 47.31719017 C64.00369938 47.33886068 61.42528963 47.34197133 58.84619141 47.34057617 C58.07727066 47.351362 57.30834991 47.36214783 56.51612854 47.3732605 C54.39151001 47.36076355 54.39151001 47.36076355 51 47 C48.93962697 43.90944045 48.75200758 43.29073838 48.77294922 39.80395508 C48.77319092 38.95160278 48.77343262 38.09925049 48.77368164 37.22106934 C48.78391357 36.32956177 48.79414551 35.4380542 48.8046875 34.51953125 C48.80670166 33.69690796 48.80871582 32.87428467 48.81079102 32.0267334 C48.82125117 28.95526551 48.84917378 25.88387712 48.875 22.8125 C48.91625 15.944375 48.9575 9.07625 49 2 C32.5 2 16 2 -1 2 C-0.67 1.34 -0.34 0.68 0 0 Z " fill="#96F5B1" transform="translate(223,876)"/>
<path d="M0 0 C14.19 0 28.38 0 43 0 C44.28566729 2.57133459 44.12009778 4.397171 44.11352539 7.27587891 C44.11344986 8.3768692 44.11337433 9.4778595 44.11329651 10.61221313 C44.10813522 11.80494843 44.10297394 12.99768372 44.09765625 14.2265625 C44.0962413 15.44451508 44.09482635 16.66246765 44.09336853 17.91732788 C44.08775639 21.8199099 44.07520179 25.72243523 44.0625 29.625 C44.05748657 32.26562417 44.05292339 34.90624924 44.04882812 37.546875 C44.03778301 44.03126945 44.02103302 50.51563068 44 57 C45.57467041 56.98428955 45.57467041 56.98428955 47.18115234 56.96826172 C51.06865033 56.93211547 54.95613341 56.90911922 58.84375 56.89013672 C60.52769466 56.88006683 62.21162179 56.86641012 63.89550781 56.84912109 C66.31319501 56.82491574 68.73065143 56.81352704 71.1484375 56.8046875 C71.9036972 56.79436493 72.65895691 56.78404236 73.43710327 56.77340698 C75.2929398 56.77300682 77.1481928 56.87777284 79 57 C81 59 81 59 81.24050903 60.83499146 C81.23606781 61.57667572 81.23162659 62.31835999 81.22705078 63.08251953 C81.22689972 63.92324005 81.22674866 64.76396057 81.22659302 65.63015747 C81.21627045 66.53853363 81.20594788 67.44690979 81.1953125 68.3828125 C81.1924826 69.31221649 81.18965271 70.24162048 81.18673706 71.19918823 C81.17552069 74.1745885 81.1504136 77.14969035 81.125 80.125 C81.11497208 82.13931858 81.1058459 84.15364186 81.09765625 86.16796875 C81.07557661 91.11209456 81.04103693 96.05599665 81 101 C80.34 101 79.68 101 79 101 C79 87.14 79 73.28 79 59 C66.79 59 54.58 59 42 59 C42 40.19 42 21.38 42 2 C28.14 2 14.28 2 0 2 C0 1.34 0 0.68 0 0 Z " fill="#99F5B2" transform="translate(911,275)"/>
<path d="M0 0 C0.33 0 0.66 0 1 0 C1.17164838 11.99993247 1.33813558 23.99993158 1.5 36 C1.51187725 36.88030758 1.5237545 37.76061516 1.53599167 38.66759872 C1.88676721 64.77913841 2.16915112 90.88566868 2 117 C2.82725586 116.98952637 3.65451172 116.97905273 4.50683594 116.96826172 C8.2545264 116.92669088 12.00216832 116.90067008 15.75 116.875 C17.05195312 116.85824219 18.35390625 116.84148437 19.6953125 116.82421875 C20.94570313 116.81777344 22.19609375 116.81132813 23.484375 116.8046875 C24.63647461 116.79421387 25.78857422 116.78374023 26.97558594 116.77294922 C29.89892966 116.99241238 31.53732509 117.47271878 34 119 C29.49767666 119.07417023 24.99570909 119.1286105 20.49291992 119.16479492 C18.96128139 119.17987936 17.42968602 119.20034978 15.89819336 119.22631836 C13.69634346 119.26271847 11.49506467 119.27972913 9.29296875 119.29296875 C8.60849167 119.30845261 7.92401459 119.32393646 7.21879578 119.33988953 C2.46009727 119.3415732 2.46009727 119.3415732 0.31808853 117.75135994 C-1.33823071 115.55058883 -1.37267407 114.37434744 -1.36749268 111.63766479 C-1.37306183 110.74623276 -1.37863098 109.85480072 -1.3843689 108.93635559 C-1.37515411 107.9607518 -1.36593933 106.98514801 -1.35644531 105.97998047 C-1.35848969 104.95036697 -1.36053406 103.92075348 -1.36264038 102.85993958 C-1.36565578 99.44550999 -1.34714073 96.03155999 -1.328125 92.6171875 C-1.32506717 90.24407063 -1.32319123 87.87095197 -1.32244873 85.49783325 C-1.31784007 80.51606407 -1.30339793 75.53445602 -1.28125 70.55273438 C-1.25305956 64.18078217 -1.24204795 57.80895741 -1.2375679 51.43694878 C-1.23339925 46.5314711 -1.22356827 41.62601895 -1.21169281 36.72055435 C-1.2060108 34.37231778 -1.20124535 32.02407881 -1.19742584 29.67583847 C-1.19051131 26.38264482 -1.17685227 23.08954872 -1.16113281 19.79638672 C-1.16001495 18.83292831 -1.15889709 17.86946991 -1.15774536 16.8768158 C-1.121915 11.17703964 -0.72426145 5.65482447 0 0 Z " fill="#AFF0BE" transform="translate(609,846)"/>
<path d="M0 0 C23.1 0 46.2 0 70 0 C70 26.4 70 52.8 70 80 C69.34 80 68.68 80 68 80 C68 54.26 68 28.52 68 2 C45.89 2 23.78 2 1 2 C0.67 1.34 0.34 0.68 0 0 Z " fill="#ADF9AF" transform="translate(786,334)"/>
<path d="M0 0 C0.66 0 1.32 0 2 0 C2 29.7 2 59.4 2 90 C-1.63049543 90.90762386 -4.17869471 91.09271741 -7.87011719 91.02172852 C-9.64150055 90.99158409 -9.64150055 90.99158409 -11.44866943 90.96083069 C-12.71857727 90.93379562 -13.98848511 90.90676056 -15.296875 90.87890625 C-17.25273529 90.84348976 -17.25273529 90.84348976 -19.24810791 90.80735779 C-22.70711335 90.74466232 -26.16596191 90.67555497 -29.62481689 90.60510254 C-33.15735762 90.53428737 -36.69000917 90.46954943 -40.22265625 90.40429688 C-47.14855794 90.27547212 -54.07431285 90.13987187 -61 90 C-61 89.34 -61 88.68 -61 88 C-40.87 88 -20.74 88 0 88 C0 58.96 0 29.92 0 0 Z " fill="#8FF3AA" transform="translate(854,644)"/>
<path d="M0 0 C24.09 0 48.18 0 73 0 C73 0.66 73 1.32 73 2 C49.57 2 26.14 2 2 2 C2 15.2 2 28.4 2 42 C-0.62178569 38.06732146 -0.25172941 34.73422339 -0.1953125 30.17578125 C-0.19329834 29.41213257 -0.19128418 28.64848389 -0.18920898 27.86169434 C-0.1787531 25.0119017 -0.15083047 22.16219475 -0.125 19.3125 C-0.08375 12.939375 -0.0425 6.56625 0 0 Z " fill="#9AF7B3" transform="translate(782,921)"/>
<path d="M0 0 C28.38 0 56.76 0 86 0 C86 0.33 86 0.66 86 1 C57.95 1 29.9 1 1 1 C1 15.19 1 29.38 1 44 C-5.27 44 -11.54 44 -18 44 C-17.67 43.34 -17.34 42.68 -17 42 C-11.72 42 -6.44 42 -1 42 C-1.00785522 40.19813232 -1.00785522 40.19813232 -1.01586914 38.35986328 C-1.03393653 33.91325624 -1.0454384 29.46665247 -1.05493164 25.02001953 C-1.05996787 23.09358169 -1.06679712 21.16714769 -1.07543945 19.24072266 C-1.08753608 16.47557632 -1.09323533 13.71048042 -1.09765625 10.9453125 C-1.10281754 10.0806839 -1.10797882 9.2160553 -1.11329651 8.32522583 C-1.11387171 2.22774341 -1.11387171 2.22774341 0 0 Z " fill="#6FEBB6" transform="translate(273,148)"/>
<path d="M0 0 C1.65 0 3.3 0 5 0 C5 29.7 5 59.4 5 90 C3.515 90.495 3.515 90.495 2 91 C2.33 61.63 2.66 32.26 3 2 C2.01 2 1.02 2 0 2 C0 1.34 0 0.68 0 0 Z " fill="#5AEFB4" transform="translate(114,674)"/>
<path d="M0 0 C0.99 0.495 0.99 0.495 2 1 C2 14.53 2 28.06 2 42 C14.87 42 27.74 42 41 42 C41.33 39.69 41.66 37.38 42 35 C42.66 35 43.32 35 44 35 C44 37.97 44 40.94 44 44 C29.48 44 14.96 44 0 44 C0 29.48 0 14.96 0 0 Z " fill="#B3F6B0" transform="translate(315,735)"/>
<path d="M0 0 C0.33 0 0.66 0 1 0 C2.08794502 4.38566071 2.12897314 8.65582765 2.09765625 13.14453125 C2.09553383 14.2992115 2.09553383 14.2992115 2.09336853 15.47721863 C2.08779606 17.92235288 2.07524871 20.36739368 2.0625 22.8125 C2.05748144 24.47591013 2.05291915 26.1393217 2.04882812 27.80273438 C2.03783566 31.86852528 2.0205901 35.93424683 2 40 C2.60658447 39.96447021 3.21316895 39.92894043 3.83813477 39.89233398 C18.97556465 39.04198038 33.86831677 39.05853946 49 40 C49 40.66 49 41.32 49 42 C32.83 42 16.66 42 0 42 C0 28.14 0 14.28 0 0 Z " fill="#91F6AE" transform="translate(816,150)"/>
<path d="M0 0 C14.85 0 29.7 0 45 0 C45 0.66 45 1.32 45 2 C30.81 2 16.62 2 2 2 C2 15.53 2 29.06 2 43 C1.34 43 0.68 43 0 43 C0 28.81 0 14.62 0 0 Z " fill="#86F0B5" transform="translate(909,832)"/>
<path d="M0 0 C0.33 0 0.66 0 1 0 C1 14.52 1 29.04 1 44 C-13.19 44 -27.38 44 -42 44 C-42 43.34 -42 42.68 -42 42 C-28.47 42 -14.94 42 -1 42 C-1.03960516 28.55185995 -1.03960516 28.55185995 -1.09008789 15.10375977 C-1.093007 13.42464257 -1.09555557 11.74552467 -1.09765625 10.06640625 C-1.10277222 9.18625854 -1.10788818 8.30611084 -1.11315918 7.39929199 C-1.11346896 5.26586121 -1.06244067 3.13251686 -1 1 C-0.67 0.67 -0.34 0.34 0 0 Z " fill="#85F5B1" transform="translate(118,403)"/>
<path d="M0 0 C13.86 0 27.72 0 42 0 C42 17.82 42 35.64 42 54 C41.67 54 41.34 54 41 54 C41 36.84 41 19.68 41 2 C35.06 2.33 29.12 2.66 23 3 C18.76323747 2.92443059 14.59595419 2.81265192 10.375 2.5625 C9.35921875 2.51029297 8.3434375 2.45808594 7.296875 2.40429688 C4.86398568 2.27806205 2.43192554 2.14341791 0 2 C0 1.34 0 0.68 0 0 Z " fill="#84F2B7" transform="translate(742,280)"/>
<path d="M0 0 C17.82 0 35.64 0 54 0 C54 0.33 54 0.66 54 1 C36.84 1 19.68 1 2 1 C2.44720438 10.73875019 2.44720438 10.73875019 2.9284668 20.47583008 C2.97656494 21.68650146 3.02466309 22.89717285 3.07421875 24.14453125 C3.13182373 25.38565674 3.18942871 26.62678223 3.2487793 27.90551758 C3 31 3 31 0 34 C0 22.78 0 11.56 0 0 Z " fill="#8BF1B5" transform="translate(855,877)"/>
<path d="M0 0 C0.33 0 0.66 0 1 0 C1 13.86 1 27.72 1 42 C3.64 41.67 6.28 41.34 9 41 C10.88933409 40.91729872 12.78073325 40.86956758 14.671875 40.8671875 C15.66574219 40.86589844 16.65960937 40.86460937 17.68359375 40.86328125 C18.69550781 40.86714844 19.70742188 40.87101563 20.75 40.875 C21.77738281 40.87113281 22.80476562 40.86726562 23.86328125 40.86328125 C24.85199219 40.86457031 25.84070313 40.86585938 26.859375 40.8671875 C28.19693848 40.86887939 28.19693848 40.86887939 29.56152344 40.87060547 C31.84732239 40.99189836 33.80945874 41.35838422 36 42 C36 42.66 36 43.32 36 44 C31.68751453 44.02929984 27.37505507 44.04689903 23.0625 44.0625 C21.85013672 44.07087891 20.63777344 44.07925781 19.38867188 44.08789062 C17.60493164 44.09272461 17.60493164 44.09272461 15.78515625 44.09765625 C14.15912476 44.10551147 14.15912476 44.10551147 12.50024414 44.11352539 C8.31919509 43.97791907 4.15766172 43.46196241 0 43 C0 28.81 0 14.62 0 0 Z " fill="#93F7AF" transform="translate(954,691)"/>
<path d="M0 0 C16.83 0 33.66 0 51 0 C50.67 1.65 50.34 3.3 50 5 C49.505 3.515 49.505 3.515 49 2 C32.5 2 16 2 -1 2 C-0.67 1.34 -0.34 0.68 0 0 Z " fill="#8AF3B5" transform="translate(223,876)"/>
<path d="M0 0 C3 3 3 3 3.35644531 5.37255859 C3.34709961 6.28859863 3.33775391 7.20463867 3.328125 8.1484375 C3.32039062 9.65664063 3.32039062 9.65664063 3.3125 11.1953125 C3.291875 12.24460937 3.27125 13.29390625 3.25 14.375 C3.24226562 15.93734375 3.24226562 15.93734375 3.234375 17.53125 C3.18693252 22.16875259 3.02306025 26.46183594 2 31 C1.34 30.67 0.68 30.34 0 30 C0 20.1 0 10.2 0 0 Z " fill="#59EFB4" transform="translate(909,644)"/>
<path d="M0 0 C0.33 0 0.66 0 1 0 C1 8.58 1 17.16 1 26 C0.01 26.33 -0.98 26.66 -2 27 C-1.86188078 22.68721615 -1.71321891 18.37486047 -1.5625 14.0625 C-1.50352539 12.21495117 -1.50352539 12.21495117 -1.44335938 10.33007812 C-1.40146484 9.16025391 -1.35957031 7.99042969 -1.31640625 6.78515625 C-1.27974854 5.70113525 -1.24309082 4.61711426 -1.20532227 3.50024414 C-1 1 -1 1 0 0 Z " fill="#6DF1AD" transform="translate(118,738)"/>
<path d="M0 0 C1.56047445 0.00015913 3.12095416 0.00585397 4.68139648 0.01586914 C5.91115456 0.01799156 5.91115456 0.01799156 7.16575623 0.02015686 C9.79470406 0.0257725 12.42356797 0.0383276 15.05249023 0.05102539 C16.8304838 0.05603838 18.60847869 0.06060163 20.38647461 0.06469727 C24.75434569 0.07574701 29.12215371 0.09302208 33.48999023 0.11352539 C33.48999023 0.44352539 33.48999023 0.77352539 33.48999023 1.11352539 C21.93999023 1.11352539 10.38999023 1.11352539 -1.51000977 1.11352539 C-1.51000977 4.41352539 -1.51000977 7.71352539 -1.51000977 11.11352539 C-4.54334899 8.08018617 -4.17464316 5.33914459 -4.51000977 1.11352539 C-3.51000977 0.11352539 -3.51000977 0.11352539 0 0 Z " fill="#55EEB8" transform="translate(612.510009765625,108.886474609375)"/>
<path d="M0 0 C0.33 0 0.66 0 1 0 C1 6.27 1 12.54 1 19 C-5.27 19 -11.54 19 -18 19 C-17.67 18.34 -17.34 17.68 -17 17 C-11.72 17 -6.44 17 -1 17 C-0.67 11.39 -0.34 5.78 0 0 Z " fill="#7DF1B9" transform="translate(273,173)"/>
<path d="M0 0 C6.6 0 13.2 0 20 0 C20 0.66 20 1.32 20 2 C10.595 2.495 10.595 2.495 1 3 C0.67 2.01 0.34 1.02 0 0 Z " fill="#62EEB7" transform="translate(764,280)"/>
<path d="M0 0 C1.58323688 -0.027193 3.16661062 -0.04648306 4.75 -0.0625 C6.07257812 -0.07990234 6.07257812 -0.07990234 7.421875 -0.09765625 C9.7818838 -0.00826198 11.74498524 0.33087179 14 1 C14 1.66 14 2.32 14 3 C9.38 3 4.76 3 0 3 C0 2.01 0 1.02 0 0 Z " fill="#75F1A2" transform="translate(976,732)"/>
<path d="M0 0 C1.48828125 1.05078125 1.48828125 1.05078125 3 3 C3.29296875 6.35546875 3.29296875 6.35546875 3.1875 10.1875 C3.16042969 11.45980469 3.13335938 12.73210938 3.10546875 14.04296875 C3.07066406 15.01878906 3.03585937 15.99460937 3 17 C1 16 1 16 0.37890625 14.328125 C-0.09148053 11.43791344 -0.0943182 8.67727465 -0.0625 5.75 C-0.04896484 4.13351562 -0.04896484 4.13351562 -0.03515625 2.484375 C-0.02355469 1.66453125 -0.01195312 0.8446875 0 0 Z " fill="#66F2A5" transform="translate(909,644)"/>
<path d="M0 0 C1.98 0 3.96 0 6 0 C6 6.27 6 12.54 6 19 C5.67 19 5.34 19 5 19 C4.67 13.39 4.34 7.78 4 2 C2.68 1.67 1.36 1.34 0 1 C0 0.67 0 0.34 0 0 Z " fill="#96F4A8" transform="translate(353,334)"/>
<path d="M0 0 C0.99 0.495 0.99 0.495 2 1 C3.17312834 6.59491979 3.17312834 6.59491979 3 9 C2.01 9.99 1.02 10.98 0 12 C0 8.04 0 4.08 0 0 Z " fill="#69F2C0" transform="translate(855,899)"/>
<path d="M0 0 C0.33 0 0.66 0 1 0 C1.19622241 4.21878192 0.80230168 7.17010894 -1 11 C-1.33 11 -1.66 11 -2 11 C-2.28571429 3.57142857 -2.28571429 3.57142857 0 0 Z " fill="#8EF4B1" transform="translate(118,765)"/>
<path d="M0 0 C2 2 2 2 2.1953125 4.1640625 C2.16050781 5.38222656 2.16050781 5.38222656 2.125 6.625 C2.10695313 7.44226563 2.08890625 8.25953125 2.0703125 9.1015625 C2.04710937 9.72804688 2.02390625 10.35453125 2 11 C-1.03333922 7.96666078 -0.6646334 5.2256192 -1 1 C-0.67 0.67 -0.34 0.34 0 0 Z " fill="#73F3A4" transform="translate(609,109)"/>
<path d="M0 0 C2.97 0 5.94 0 9 0 C8.67 1.65 8.34 3.3 8 5 C7.34 4.01 6.68 3.02 6 2 C2.93443402 1.26656572 2.93443402 1.26656572 0 1 C0 0.67 0 0.34 0 0 Z " fill="#62F395" transform="translate(265,876)"/>
<path d="M0 0 C2.31 0 4.62 0 7 0 C7 0.66 7 1.32 7 2 C5.02 2.33 3.04 2.66 1 3 C0.67 2.01 0.34 1.02 0 0 Z " fill="#7DF296" transform="translate(764,280)"/>
</svg>
